PathFileType	4	(X/Y/Z)	F:\PHD\Matlab_Output_Files\Ahelaos\HopStudy\HopDistance\Right\HDR_3\HDR_3.trc
DataRate	CameraRate	NumFrames	NumMarkers	Units	OrigDataRate	OrigDataStartFrame	OrigNumFrames
100.000000	100.000000	10	46	m	100.000000	49	195
Frame#	Times			LFHD			RFHD			LBHD			RBHD			C7			T10			CLAV			STRN			RBAK			LSHO			LELB			LWRA			LWRB			LFIN			RSHO			RELB			RWRA			RWRB			RFIN			LASI			RASI			SACR			RPSI			LPSI			LTHI			LTHI2			LTHI3			LKNE			LTIB			LTIB2			LTIB3			LANK			LHEE			LTOE			LLatFoot			RTHI			RTHI2			RTHI3			RKNE			RTIB			RTIB2			RTIB3			RANK			RHEE			RTOE			RLatFoot
		X1	Y1	Z1	X2	Y2	Z2	X3	Y3	Z3	X4	Y4	Z4	X5	Y5	Z5	X6	Y6	Z6	X7	Y7	Z7	X8	Y8	Z8	X9	Y9	Z9	X10	Y10	Z10	X11	Y11	Z11	X12	Y12	Z12	X13	Y13	Z13	X14	Y14	Z14	X15	Y15	Z15	X16	Y16	Z16	X17	Y17	Z17	X18	Y18	Z18	X19	Y19	Z19	X20	Y20	Z20	X21	Y21	Z21	X22	Y22	Z22	X23	Y23	Z23	X24	Y24	Z24	X25	Y25	Z25	X26	Y26	Z26	X27	Y27	Z27	X28	Y28	Z28	X29	Y29	Z29	X30	Y30	Z30	X31	Y31	Z31	X32	Y32	Z32	X33	Y33	Z33	X34	Y34	Z34	X35	Y35	Z35	X36	Y36	Z36	X37	Y37	Z37	X38	Y38	Z38	X39	Y39	Z39	X40	Y40	Z40	X41	Y41	Z41	X42	Y42	Z42	X43	Y43	Z43	X44	Y44	Z44	X45	Y45	Z45	X46	Y46	Z46

49	0.49	-0.83449	1.6178	0.21783	-0.83347	1.6084	0.3315	-0.98718	1.7205	0.21935	-0.97157	1.6932	0.34879	-1.137	1.5869	0.27514	-1.2804	1.2903	0.25309	-1.0334	1.4635	0.26509	-1.0548	1.3011	0.23815	-1.2164	1.4876	0.3949	-1.1124	1.5699	0.10563	-1.2582	1.2501	-0.030495	-1.1525	0.9633	-0.021404	-1.2097	0.95215	-0.074158	-1.1493	0.89888	-0.07387	-1.0713	1.5115	0.42461	-1.2279	1.1864	0.53684	-1.1471	0.89802	0.50282	-1.2089	0.88467	0.54502	-1.155	0.82553	0.54851	-1.1286	1.0598	0.10483	-1.0849	1.0531	0.33723	-1.2989	1.0985	0.2399	-1.2788	1.1148	0.29794	-1.2944	1.122	0.1895	-1.1572	0.74112	0.041798	-1.08	0.80248	0.021714	-1.0781	0.71228	0.018013	-1.0279	0.56468	0.028275	-1.2075	0.56149	0.052199	-1.1919	0.49745	0.054038	-1.2477	0.51529	0.065644	-1.4101	0.48111	0.1282	-1.4184	0.51775	0.16575	-1.4173	0.32484	0.14659	-1.4799	0.38997	0.12676	-1.115	0.75905	0.38602	-1.2111	0.73346	0.37884	-1.1419	0.68282	0.37219	-1.1441	0.51727	0.33134	-1.1664	0.31543	0.31886	-1.2308	0.31977	0.33279	-1.2076	0.2715	0.31648	-1.2429	0.10354	0.26933	-1.2947	0.1083	0.22032	-1.1165	0.049222	0.25851	-1.1982	0.028993	0.28556
50	0.5	-0.8329	1.6164	0.21874	-0.83198	1.6077	0.33148	-0.9856	1.7199	0.21951	-0.96983	1.6927	0.34911	-1.1339	1.5866	0.27506	-1.2796	1.2904	0.25343	-1.0322	1.4631	0.2653	-1.0537	1.3009	0.23834	-1.2148	1.4877	0.39534	-1.1113	1.5697	0.10593	-1.2569	1.25	-0.030102	-1.1504	0.96367	-0.021526	-1.2078	0.95229	-0.074472	-1.1467	0.89915	-0.07421	-1.0698	1.5112	0.4249	-1.2267	1.1862	0.5371	-1.1475	0.89748	0.50251	-1.2092	0.88429	0.5447	-1.1555	0.82549	0.54854	-1.1281	1.0594	0.10511	-1.0845	1.0529	0.33739	-1.2986	1.0986	0.24005	-1.2785	1.1148	0.29821	-1.2938	1.1219	0.18956	-1.1577	0.74079	0.04146	-1.0801	0.80228	0.021888	-1.0784	0.71197	0.017657	-1.0282	0.56524	0.027665	-1.2082	0.56281	0.052274	-1.1926	0.49905	0.054271	-1.2484	0.51655	0.066212	-1.4107	0.48397	0.12923	-1.4187	0.52077	0.16655	-1.4192	0.32731	0.14775	-1.4812	0.39326	0.12788	-1.1149	0.75879	0.3861	-1.2111	0.73347	0.37885	-1.1419	0.68264	0.37232	-1.1442	0.51726	0.33146	-1.1666	0.31556	0.31907	-1.2311	0.31983	0.33268	-1.2079	0.27149	0.31659	-1.2432	0.10372	0.26931	-1.2948	0.10827	0.22015	-1.1165	0.049118	0.25855	-1.1983	0.028824	0.2856
51	0.51	-0.8312	1.6159	0.2186	-0.83048	1.607	0.33153	-0.98396	1.7194	0.21947	-0.9682	1.6922	0.34895	-1.1325	1.5864	0.27542	-1.2787	1.2905	0.25359	-1.0311	1.4626	0.26529	-1.0528	1.3006	0.23846	-1.2134	1.488	0.39594	-1.11	1.5696	0.10629	-1.2559	1.2499	-0.030086	-1.1488	0.96373	-0.021776	-1.2063	0.9525	-0.07417	-1.1447	0.89941	-0.074501	-1.0685	1.5109	0.42516	-1.2257	1.186	0.53725	-1.1477	0.8972	0.50226	-1.2095	0.88368	0.5441	-1.156	0.82501	0.54794	-1.1277	1.0593	0.10533	-1.0841	1.0527	0.33744	-1.2982	1.0987	0.24021	-1.2781	1.115	0.29846	-1.2933	1.1221	0.1898	-1.1579	0.74084	0.041439	-1.0802	0.80172	0.022374	-1.0785	0.71185	0.017492	-1.0288	0.56457	0.027829	-1.2082	0.56406	0.052274	-1.1931	0.50073	0.054187	-1.2491	0.51794	0.066496	-1.4113	0.48696	0.13011	-1.419	0.52361	0.16721	-1.4212	0.33036	0.14835	-1.4837	0.39649	0.12826	-1.1149	0.7587	0.38615	-1.211	0.73351	0.37884	-1.142	0.68256	0.37247	-1.1443	0.5173	0.33171	-1.167	0.31564	0.31985	-1.2316	0.31992	0.33267	-1.2086	0.27114	0.31646	-1.2435	0.10378	0.26932	-1.2949	0.10829	0.22001	-1.1166	0.048951	0.25879	-1.1983	0.028535	0.28578
52	0.52	-0.83016	1.6156	0.21747	-0.82904	1.6064	0.33159	-0.98207	1.719	0.21947	-0.96648	1.6918	0.34887	-1.131	1.5863	0.27577	-1.2778	1.2907	0.25366	-1.0299	1.4624	0.26532	-1.052	1.3003	0.23869	-1.2119	1.488	0.39646	-1.1093	1.5697	0.10663	-1.2542	1.25	-0.029568	-1.1466	0.96404	-0.0218	-1.2046	0.95271	-0.074183	-1.1429	0.89967	-0.074921	-1.0667	1.5105	0.42536	-1.2246	1.1859	0.53748	-1.1479	0.8966	0.50181	-1.2096	0.8838	0.5443	-1.1565	0.82456	0.54747	-1.1274	1.0593	0.10537	-1.0838	1.0526	0.33756	-1.2977	1.0989	0.24052	-1.2777	1.1153	0.29867	-1.2927	1.1222	0.18995	-1.1577	0.74064	0.041459	-1.0806	0.80198	0.021854	-1.0786	0.71202	0.017296	-1.0291	0.56448	0.027573	-1.2081	0.56524	0.052246	-1.1939	0.50087	0.054562	-1.2493	0.51962	0.066383	-1.4118	0.48924	0.1305	-1.4193	0.52629	0.16764	-1.423	0.33289	0.14897	-1.4844	0.39977	0.12911	-1.1148	0.75874	0.38615	-1.211	0.73366	0.37887	-1.1421	0.68258	0.37266	-1.1445	0.51739	0.33211	-1.1675	0.31576	0.32013	-1.2322	0.31981	0.33253	-1.209	0.27149	0.31714	-1.2439	0.10387	0.26949	-1.295	0.10828	0.21999	-1.1167	0.048962	0.25916	-1.1984	0.028297	0.28595
53	0.53	-0.82825	1.6146	0.21816	-0.82754	1.6057	0.33177	-0.98016	1.7187	0.2192	-0.96484	1.6916	0.3487	-1.1295	1.5861	0.27597	-1.2767	1.291	0.25378	-1.0287	1.4619	0.26545	-1.0515	1.2998	0.23889	-1.2105	1.488	0.3967	-1.1073	1.5693	0.10673	-1.2533	1.2502	-0.029402	-1.1447	0.96471	-0.021804	-1.2028	0.95293	-0.074003	-1.141	0.90026	-0.074866	-1.0652	1.5103	0.42537	-1.2234	1.186	0.53786	-1.1481	0.8963	0.50149	-1.2096	0.88359	0.54411	-1.1567	0.82401	0.54696	-1.1271	1.0593	0.10547	-1.0835	1.0525	0.33746	-1.2972	1.0991	0.24068	-1.2771	1.1155	0.29861	-1.2923	1.1226	0.18994	-1.1576	0.7407	0.0414	-1.0804	0.80189	0.021382	-1.0786	0.7119	0.017102	-1.0294	0.56437	0.027232	-1.2093	0.56649	0.052443	-1.1945	0.5017	0.054718	-1.2497	0.52093	0.066501	-1.4124	0.4918	0.13067	-1.4195	0.5289	0.16784	-1.4248	0.33555	0.14947	-1.4857	0.40281	0.1295	-1.1148	0.75876	0.38618	-1.2109	0.73381	0.37904	-1.142	0.68264	0.37287	-1.1447	0.51746	0.33255	-1.1681	0.31577	0.32062	-1.2327	0.31995	0.33274	-1.2095	0.27165	0.31756	-1.2444	0.104	0.26967	-1.295	0.1079	0.21976	-1.1168	0.04888	0.25951	-1.1987	0.027843	0.28611
54	0.54	-0.82636	1.6138	0.21858	-0.82601	1.6051	0.33182	-0.97806	1.7182	0.2192	-0.96321	1.6913	0.34869	-1.1278	1.5862	0.27634	-1.2758	1.2914	0.25388	-1.0274	1.4615	0.26552	-1.0508	1.2999	0.23905	-1.209	1.4881	0.39708	-1.1058	1.5692	0.10686	-1.2523	1.2503	-0.029519	-1.143	0.96508	-0.022046	-1.201	0.95316	-0.074171	-1.1393	0.90076	-0.074803	-1.0637	1.5102	0.4258	-1.2223	1.186	0.53799	-1.1481	0.89627	0.5013	-1.2096	0.88338	0.54381	-1.157	0.82356	0.54634	-1.1266	1.0594	0.10547	-1.0831	1.0525	0.33746	-1.2966	1.0993	0.24062	-1.2765	1.1158	0.29855	-1.2918	1.1232	0.18996	-1.1578	0.74084	0.041388	-1.0802	0.80195	0.021157	-1.0785	0.71212	0.015945	-1.0297	0.56451	0.026751	-1.2094	0.56778	0.052348	-1.195	0.50267	0.055023	-1.2502	0.52194	0.066848	-1.4128	0.49424	0.13087	-1.4197	0.53141	0.16797	-1.4265	0.33808	0.14986	-1.4874	0.40559	0.13037	-1.1147	0.75886	0.38634	-1.2108	0.73387	0.37918	-1.142	0.68269	0.37325	-1.145	0.51747	0.33289	-1.1684	0.31582	0.32096	-1.2331	0.32014	0.33303	-1.21	0.2715	0.31767	-1.2446	0.10409	0.26988	-1.2951	0.10849	0.22005	-1.117	0.0488	0.2598	-1.1988	0.027553	0.28635
55	0.55	-0.82497	1.6136	0.2176	-0.82436	1.6047	0.33205	-0.97626	1.7178	0.21887	-0.96141	1.6911	0.34854	-1.1261	1.5863	0.27665	-1.2748	1.2918	0.25405	-1.0259	1.4616	0.26606	-1.0498	1.2999	0.23924	-1.2076	1.4884	0.39748	-1.1043	1.5691	0.10722	-1.2519	1.2505	-0.029535	-1.1414	0.96544	-0.022125	-1.1993	0.95307	-0.07432	-1.1374	0.9012	-0.074959	-1.0621	1.5102	0.42602	-1.2212	1.186	0.53843	-1.1482	0.89612	0.50091	-1.2095	0.88347	0.54372	-1.1572	0.82315	0.54568	-1.1263	1.0595	0.10617	-1.0828	1.0525	0.33745	-1.296	1.0996	0.24056	-1.2759	1.1159	0.29829	-1.2913	1.1236	0.1899	-1.157	0.74196	0.040989	-1.0801	0.8021	0.021034	-1.0784	0.71259	0.016632	-1.0299	0.56472	0.026404	-1.2093	0.56888	0.052019	-1.1954	0.50394	0.05451	-1.2506	0.52332	0.066316	-1.4132	0.49639	0.13089	-1.42	0.5337	0.16801	-1.4278	0.34023	0.15005	-1.4879	0.40879	0.12997	-1.1148	0.75894	0.38655	-1.2108	0.73397	0.37933	-1.142	0.68274	0.37355	-1.1453	0.51742	0.33336	-1.1687	0.31584	0.32138	-1.2336	0.32039	0.33345	-1.2103	0.27183	0.31814	-1.2449	0.10425	0.27005	-1.2953	0.10822	0.21995	-1.1172	0.048751	0.26014	-1.199	0.027285	0.28662
56	0.56	-0.823	1.6126	0.21932	-0.82267	1.6043	0.33219	-0.97403	1.7176	0.2191	-0.95949	1.6911	0.34871	-1.1242	1.5863	0.27679	-1.2737	1.2921	0.25427	-1.0243	1.4615	0.26638	-1.0481	1.2998	0.23975	-1.206	1.4886	0.39754	-1.1026	1.5689	0.10744	-1.2509	1.2506	-0.029287	-1.1398	0.96597	-0.022239	-1.198	0.95334	-0.073962	-1.1358	0.90171	-0.075086	-1.0603	1.5097	0.42625	-1.2202	1.186	0.53855	-1.1481	0.89608	0.50062	-1.2094	0.88362	0.54365	-1.1572	0.82323	0.54536	-1.1255	1.06	0.10567	-1.0824	1.0524	0.33757	-1.2956	1.1001	0.24053	-1.2753	1.1161	0.29841	-1.2904	1.1239	0.18984	-1.1569	0.74217	0.040859	-1.08	0.80237	0.020869	-1.0785	0.71269	0.016456	-1.0302	0.56485	0.026043	-1.2094	0.56969	0.051726	-1.1959	0.50473	0.054057	-1.2509	0.52463	0.066111	-1.4138	0.49845	0.13068	-1.4202	0.53587	0.16787	-1.4289	0.34236	0.14986	-1.4882	0.41145	0.13067	-1.1148	0.75894	0.38678	-1.2109	0.73399	0.37952	-1.1423	0.68253	0.37357	-1.1455	0.51737	0.33359	-1.1691	0.3158	0.32169	-1.234	0.32043	0.33361	-1.2107	0.27153	0.3184	-1.2453	0.10438	0.27024	-1.2955	0.10815	0.21997	-1.1173	0.048696	0.26043	-1.1991	0.027086	0.28687
57	0.57	-0.82171	1.6128	0.21739	-0.82083	1.604	0.33243	-0.97213	1.7174	0.21886	-0.95771	1.6911	0.34865	-1.1224	1.5862	0.27706	-1.2725	1.2924	0.25429	-1.0228	1.4612	0.26647	-1.0471	1.2996	0.23968	-1.2043	1.489	0.39808	-1.1015	1.5689	0.10789	-1.2502	1.2507	-0.029201	-1.1381	0.9663	-0.022417	-1.1966	0.95381	-0.07348	-1.134	0.90227	-0.075163	-1.0587	1.5096	0.42648	-1.219	1.1862	0.53892	-1.1481	0.89601	0.50016	-1.2091	0.88379	0.54353	-1.1571	0.82345	0.545	-1.1249	1.0601	0.10571	-1.0821	1.0523	0.33776	-1.295	1.1006	0.24049	-1.2749	1.1166	0.29859	-1.2897	1.1244	0.18997	-1.1568	0.74248	0.04077	-1.0798	0.80256	0.020586	-1.0786	0.71283	0.016198	-1.0303	0.56498	0.025776	-1.2096	0.57099	0.051331	-1.1964	0.50566	0.05383	-1.2513	0.52576	0.065801	-1.414	0.5004	0.1307	-1.4205	0.53795	0.16761	-1.4307	0.34462	0.15012	-1.4897	0.4131	0.12989	-1.1149	0.75893	0.38706	-1.211	0.734	0.37961	-1.1423	0.68289	0.37453	-1.1457	0.51739	0.33386	-1.1695	0.31579	0.32197	-1.2343	0.32022	0.33338	-1.2111	0.27143	0.31862	-1.2456	0.10446	0.27034	-1.2955	0.10816	0.21984	-1.1175	0.048709	0.26078	-1.1993	0.026938	0.28703
58	0.58	-0.82035	1.6129	0.2153	-0.8189	1.6037	0.33253	-0.97013	1.717	0.2189	-0.95569	1.6907	0.34863	-1.1205	1.586	0.27726	-1.2713	1.2929	0.25438	-1.0212	1.4609	0.26666	-1.0456	1.2993	0.24011	-1.2027	1.4892	0.39826	-1.0989	1.5687	0.10783	-1.2489	1.2509	-0.02867	-1.1364	0.96664	-0.021868	-1.1952	0.95417	-0.072815	-1.1324	0.90279	-0.075128	-1.057	1.5095	0.4268	-1.218	1.1866	0.53917	-1.1479	0.89636	0.49992	-1.2089	0.88413	0.54348	-1.1569	0.8237	0.54473	-1.1241	1.0601	0.10609	-1.0818	1.0521	0.33797	-1.2943	1.1011	0.24051	-1.2743	1.1171	0.29863	-1.2891	1.1249	0.18997	-1.1568	0.74271	0.040717	-1.0795	0.80281	0.020425	-1.0786	0.713	0.016065	-1.0306	0.56507	0.025543	-1.21	0.57186	0.051453	-1.1968	0.50643	0.053554	-1.2518	0.52678	0.065305	-1.4145	0.50235	0.1303	-1.4207	0.53982	0.16724	-1.4322	0.3467	0.14955	-1.4907	0.41544	0.12956	-1.1151	0.75879	0.3873	-1.2113	0.73405	0.37963	-1.1426	0.6828	0.37446	-1.146	0.51734	0.33409	-1.1699	0.31587	0.32217	-1.2347	0.32022	0.33314	-1.2117	0.27136	0.31863	-1.2458	0.10455	0.27043	-1.2955	0.10812	0.21971	-1.1177	0.048662	0.26105	-1.1994	0.026849	0.28723
